<!DOCTYPE svg PUBLIC "-//W3C//DTD SVG 1.1//EN" "http://www.w3.org/Graphics/SVG/1.1/DTD/svg11.dtd">
<!-- Uploaded to: SVG Repo, www.svgrepo.com, Transformed by: SVG Repo Mixer Tools -->
<svg fill="#ffffff" width="64px" height="64px" viewBox="0 0 512 512" id="_x30_1" version="1.1" xml:space="preserve" xmlns="http://www.w3.org/2000/svg" xmlns:xlink="http://www.w3.org/1999/xlink" stroke="#ffffff">
<g id="SVGRepo_bgCarrier" stroke-width="0"/>
<g id="SVGRepo_tracerCarrier" stroke-linecap="round" stroke-linejoin="round"/>
<g id="SVGRepo_iconCarrier">
<path d="M416,160h-40c-33.137,0-60-26.863-60-60V60c0-33.137-26.863-60-60-60H96C62.863,0,36,26.863,36,60v392 c0,33.137,26.863,60,60,60h320c33.137,0,60-26.863,60-60V220C476,186.863,449.137,160,416,160z M366,432H146 c-16.569,0-30-13.431-30-30s13.431-30,30-30h220c16.569,0,30,13.431,30,30S382.569,432,366,432z M366,312H146 c-16.569,0-30-13.431-30-30s13.431-30,30-30h220c16.569,0,30,13.431,30,30S382.569,312,366,312z"/>
</g>
</svg>